{"title":"Baseline 2010 DVDRIP XviD FEEL-FREE","uid":5680797,"size":961674334,"categoryP":"video","categoryS":"movies","magnet":"?xt=urn:btih:b1c089d216bafc7ae111d1ac032989c3289e6ea3&amp;dn=Baseline+2010+DVDRIP+XviD+FEEL-FREE&amp;tr=udp%3A%2F%2Ftracker.openbittorrent.com%3A80&amp;tr=udp%3A%2F%2Fopen.demonii.com%3A1337&amp;tr=udp%3A%2F%2Ftracker.coppersurfer.tk%3A6969&amp;tr=udp%3A%2F%2Fexodus.desync.com%3A6969","seeders":1,"leechers":0,"uploader":"johnnyrep","files":9,"time":1278804344,"description":"Genre:Action | Crime | Drama\nLanguage:English\nIMDb:http://www.imdb.com/title/tt1390397/\nEncoder: Tony2\n...........................................\nGeneral\nComplete name : Baseline 2010 DVDRIP XviD FEEL-FREE\nFormat : AVI\nFormat/Info : Audio Video Interleave\nFile size : 916 MiB\nDuration : 1h 35mn\nOverall bit rate : 1 340 Kbps\n...........................................\nVideo\nFormat : xvid\nCodec ID : xvid\nDuration : 1h 35mn\nBit rate : 1 200 Kbps\nWidth : 720 pixels\nHeight : 304 pixels\nDisplay aspect ratio : 2.35:1\nFrame rate : 24.000 fps\nResolution : 24 bits\nBits/(Pixel*Frame) : 0.228\nStream size : 820 MiB (90%)\n............................................\nAudio\nID : 1\nFormat : MPEG Audio\nFormat version : Version 1\nFormat profile : Layer 3\nFormat settings, Mode : Joint stereo / MS Stereo\nCodec ID : 55\nCodec ID/Hint : MP3\nDuration : 1h 35mn\nBit rate mode : Constant\nBit rate : 128 Kbps\nChannel(s) : 2 channels\nSampling rate : 48.0 KHz\nResolution : 16 bits\nStream size : 87.5 MiB (10%)\nAlignment : Aligned on interleaves\nInterleave, duration : 24 ms (0.58 video frame)\nInterleave, preload duration : 24 ms\nWriting library : LAME3.97\n.............................................\nPlot:\nThe Baseline is the centre of the East London grime club scene and the queue regularly stretches around the block\n...................................................","torrent":{"xt":"urn:btih:b1c089d216bafc7ae111d1ac032989c3289e6ea3","amp;dn":"Baseline+2010+DVDRIP+XviD+FEEL-FREE","amp;tr":["udp%3A%2F%2Ftracker.openbittorrent.com%3A80","udp%3A%2F%2Fopen.demonii.com%3A1337","udp%3A%2F%2Ftracker.coppersurfer.tk%3A6969","udp%3A%2F%2Fexodus.desync.com%3A6969"],"infoHash":"b1c089d216bafc7ae111d1ac032989c3289e6ea3","infoHashBuffer":{"type":"Buffer","data":[177,192,137,210,22,186,252,122,225,17,209,172,3,41,137,195,40,158,110,163]},"announce":[],"urlList":[]}}